<?xml version="1.0" encoding="UTF-8" standalone="no"?>
<svg
   data-v-fde0c5aa=""
   viewBox="0 0 300 300"
   class="iconLeft"
   version="1.1"
   id="svg27"
   sodipodi:docname="16dbe959faeaa08fddb6e761da6e5598.svg"
   xmlns:inkscape="http://www.inkscape.org/namespaces/inkscape"
   xmlns:sodipodi="http://sodipodi.sourceforge.net/DTD/sodipodi-0.dtd"
   xmlns="http://www.w3.org/2000/svg"
   xmlns:svg="http://www.w3.org/2000/svg">
  <sodipodi:namedview
     id="namedview29"
     pagecolor="#ffffff"
     bordercolor="#666666"
     borderopacity="1.0"
     inkscape:pageshadow="2"
     inkscape:pageopacity="0.0"
     inkscape:pagecheckerboard="0" />
  <!---->
  <defs
     data-v-fde0c5aa=""
     id="defs2">
    <!---->
  </defs>
  <rect
     data-v-fde0c5aa=""
     fill="transparent"
     x="0"
     y="0"
     width="300px"
     height="300px"
     class="logo-background-square"
     id="rect4" />
  <defs
     data-v-fde0c5aa=""
     id="defs6">
    <!---->
  </defs>
  <g
     data-v-fde0c5aa=""
     id="547b2e27-dca4-4e75-bd1d-ae16d1d9571c"
     fill="#000000"
     transform="matrix(1.9086190748032805,0,0,1.9086190748032805,89.92295012152444,135.52312469985932)">
    <path
       d="M1.64 9.21C1.64 10.29 1.64 11.82 1.57 12.43C1.51 12.87 1.41 13.27 0.56 13.47C0.56 13.47 0.55 13.52 0.55 13.58C0.55 13.65 0.56 13.75 0.62 13.82C1.30 13.72 2.09 13.71 2.46 13.71C2.65 13.71 3.04 13.75 3.43 13.75C3.47 13.69 3.49 13.61 3.49 13.55C3.49 13.43 3.43 13.31 3.43 13.31C3.21 13.31 3.08 13.31 2.93 13.27C2.80 13.26 2.76 12.14 2.76 11.30C2.76 10.50 2.76 9.55 2.81 8.44C3.35 8.05 4.05 7.55 4.89 7.55C5.95 7.55 5.95 9.16 5.95 10.57C5.95 11.42 5.92 12.14 5.88 12.43C5.82 12.87 5.71 13.27 4.87 13.47C4.87 13.47 4.86 13.54 4.86 13.59C4.86 13.66 4.87 13.75 4.93 13.82C5.61 13.72 6.40 13.71 6.78 13.71C7 13.71 7.38 13.75 7.84 13.75C7.88 13.66 7.88 13.59 7.88 13.54C7.88 13.41 7.84 13.31 7.84 13.31C7.52 13.31 7.45 13.31 7.24 13.27C7.07 13.24 7.04 12.35 7.04 10.91C7.04 10.39 7.06 9.28 7.06 9.06C7.06 8.85 7.04 8.62 7.01 8.44C7.56 8.06 8.29 7.55 9.09 7.55C10.15 7.55 10.15 9.16 10.15 10.57C10.15 11.42 10.12 12.14 10.08 12.43C10.02 12.87 9.95 13.27 9.25 13.47C9.25 13.47 9.24 13.52 9.24 13.58C9.24 13.65 9.25 13.75 9.31 13.82C9.93 13.72 10.64 13.71 10.98 13.71C11.20 13.71 11.80 13.75 12.26 13.75C12.31 13.66 12.31 13.59 12.31 13.54C12.31 13.41 12.26 13.31 12.26 13.31C11.94 13.31 11.70 13.31 11.49 13.27C11.37 13.26 11.30 12.35 11.30 10.91C11.30 10.39 11.31 9.28 11.31 9.06C11.31 7.60 10.74 6.58 9.70 6.58C8.68 6.93 8.06 7.21 6.90 7.87C6.68 7.08 6.22 6.58 5.50 6.58C4.48 6.93 3.98 7.17 2.79 7.84C2.63 7.27 2.35 6.58 2.17 6.58C2.02 6.58 1.61 6.89 0.38 7.06C0.38 7.06 0.35 7.14 0.35 7.22C0.35 7.31 0.35 7.38 0.41 7.43C0.57 7.43 0.83 7.42 0.95 7.42C1.64 7.43 1.64 8.26 1.64 9.21ZM15.61 11.06C15.61 10.46 15.62 7.39 15.78 6.52C15.78 6.52 15.74 6.36 15.57 6.36C15.18 6.55 14.95 6.66 14.49 6.83C13.99 7.00 13.76 7.04 13.31 7.14C13.31 7.14 13.27 7.21 13.27 7.32C13.27 7.38 13.27 7.45 13.31 7.50C13.31 7.50 13.65 7.53 13.83 7.55C14.53 7.62 14.55 8.23 14.55 9.34L14.55 10.68C14.55 11.24 14.55 12.18 14.48 12.43C14.36 12.85 14.25 13.27 13.41 13.47C13.41 13.47 13.38 13.52 13.38 13.58C13.38 13.65 13.41 13.75 13.47 13.82C14.22 13.72 14.90 13.71 15.32 13.71C15.54 13.71 16.11 13.75 16.58 13.75C16.62 13.66 16.62 13.59 16.62 13.54C16.62 13.41 16.58 13.31 16.58 13.31C16.28 13.31 16.00 13.31 15.79 13.27C15.67 13.26 15.61 11.70 15.61 11.06ZM15.26 4.76C15.57 4.65 16.00 4.30 16.18 4.06C16.10 3.75 15.82 3.36 15.50 3.12C15.22 3.23 14.77 3.57 14.55 3.84C14.67 4.17 14.92 4.52 15.26 4.76ZM21.28 6.58C20.94 6.58 17.81 7.06 17.81 10.35C17.81 12.29 18.83 13.99 21.04 13.99C21.57 13.99 22.12 13.76 22.18 13.72L23.53 12.80C23.53 12.59 23.41 12.52 23.41 12.52C22.55 12.88 22.08 13.05 21.35 13.05C19.66 13.05 18.97 11.40 18.97 9.79C18.97 8.57 19.77 7.14 20.73 7.14C21.62 7.14 22.16 7.62 22.68 8.23C23.37 8.06 23.52 7.39 23.52 7.39C23.00 6.92 22.29 6.58 21.28 6.58ZM26.05 6.58C25.91 6.58 25.49 6.89 24.26 7.06C24.26 7.06 24.23 7.14 24.23 7.22C24.23 7.31 24.25 7.38 24.30 7.43C24.47 7.43 24.71 7.42 24.85 7.42C25.55 7.43 25.55 8.29 25.55 9.21C25.55 10.29 25.55 11.82 25.47 12.43C25.41 12.87 25.33 13.27 24.30 13.47C24.30 13.47 24.29 13.52 24.29 13.58C24.29 13.65 24.30 13.75 24.36 13.82C25.13 13.72 25.98 13.71 26.39 13.71C26.70 13.71 27.34 13.75 27.96 13.75C28 13.66 28 13.59 28 13.54C28 13.41 27.96 13.31 27.96 13.31C27.51 13.31 27.15 13.31 26.82 13.27C26.66 13.26 26.64 12.29 26.64 12.10C26.64 11.79 26.64 9.77 26.73 8.71C27.17 8.22 27.87 7.55 28.13 7.55C28.49 7.55 28.71 7.84 28.84 8.29C29.68 8.29 29.83 8.01 29.83 7.73C29.83 7.08 29.30 6.58 28.55 6.58C27.85 7.04 27.45 7.39 26.64 8.23C26.59 7.50 26.25 6.58 26.05 6.58ZM37.24 10.29C37.24 8.22 35.70 6.58 33.74 6.58C31.64 6.92 30.11 7.98 30.11 10.29C30.11 12.40 31.67 13.99 33.63 13.99C35.71 13.65 37.24 12.60 37.24 10.29ZM33.94 13.38C32.31 13.38 31.40 11.56 31.40 9.74C31.40 8.33 31.95 7.17 33.46 7.17C35.08 7.17 35.95 9.00 35.95 10.81C35.95 12.26 35.45 13.38 33.94 13.38ZM46.30 12.98C44.51 12.98 43.90 11.24 43.90 9.79C46.28 9.56 48.75 8.99 48.75 8.99C48.76 8.93 48.78 8.88 48.78 8.82C48.78 8.67 48.69 8.57 48.69 8.57C48.38 8.55 48.33 8.51 48.30 8.39C47.88 6.94 46.51 6.58 45.74 6.58C44.38 6.89 42.76 7.94 42.76 10.35C42.76 12.40 43.96 13.99 45.61 13.99C46.41 13.99 46.91 13.82 47.04 13.72L48.55 12.66C48.52 12.43 48.33 12.36 48.33 12.36C47.77 12.75 47.14 12.98 46.30 12.98ZM44.86 7.28C45.08 7.14 45.36 7.14 45.50 7.14C46.69 7.14 47.25 8.55 47.25 8.62C47.25 8.67 47.24 8.68 47.18 8.71C46.80 8.83 46.40 8.93 45.78 9.04C45.25 9.13 44.30 9.21 43.96 9.21C44.02 8.55 44.23 7.71 44.86 7.28ZM51.91 7.88C51.91 5.71 51.98 2.72 52.21 1.32C52.21 1.32 52.14 1.18 51.98 1.18C51.51 1.46 51.28 1.65 50.74 1.83C50.23 2.00 49.99 2.04 49.62 2.11C49.57 2.18 49.57 2.27 49.57 2.28C49.57 2.30 49.57 2.39 49.62 2.46C49.62 2.46 49.94 2.51 50.12 2.52C50.81 2.60 50.81 3.46 50.81 4.26L50.81 7.84C50.81 10.56 50.76 11.87 50.67 12.43C50.60 12.87 50.47 13.27 49.50 13.47C49.50 13.47 49.49 13.52 49.49 13.58C49.49 13.65 49.50 13.75 49.56 13.82C50.33 13.72 51.24 13.71 51.65 13.71C51.95 13.71 52.57 13.75 53.19 13.75C53.21 13.66 53.21 13.59 53.21 13.54C53.21 13.41 53.19 13.31 53.19 13.31C52.74 13.31 52.35 13.31 52.09 13.26C51.93 13.20 51.91 10.68 51.91 9.52ZM57.72 12.98C55.93 12.98 55.33 11.24 55.33 9.79C57.71 9.56 60.17 8.99 60.17 8.99C60.19 8.93 60.20 8.88 60.20 8.82C60.20 8.67 60.12 8.57 60.12 8.57C59.81 8.55 59.75 8.51 59.72 8.39C59.30 6.94 57.93 6.58 57.16 6.58C55.80 6.89 54.18 7.94 54.18 10.35C54.18 12.40 55.38 13.99 57.04 13.99C57.83 13.99 58.34 13.82 58.46 13.72L59.98 12.66C59.95 12.43 59.75 12.36 59.75 12.36C59.19 12.75 58.56 12.98 57.72 12.98ZM56.28 7.28C56.50 7.14 56.78 7.14 56.92 7.14C58.11 7.14 58.67 8.55 58.67 8.62C58.67 8.67 58.66 8.68 58.60 8.71C58.23 8.83 57.82 8.93 57.20 9.04C56.67 9.13 55.72 9.21 55.38 9.21C55.44 8.55 55.65 7.71 56.28 7.28ZM64.79 6.58C64.46 6.58 61.32 7.06 61.32 10.35C61.32 12.29 62.34 13.99 64.55 13.99C65.09 13.99 65.63 13.76 65.69 13.72L67.05 12.80C67.05 12.59 66.92 12.52 66.92 12.52C66.07 12.88 65.59 13.05 64.86 13.05C63.17 13.05 62.48 11.40 62.48 9.79C62.48 8.57 63.28 7.14 64.25 7.14C65.13 7.14 65.67 7.62 66.19 8.23C66.88 8.06 67.03 7.39 67.03 7.39C66.51 6.92 65.80 6.58 64.79 6.58ZM72.03 7.39C72.06 7.21 72.07 7.04 72.17 6.87C72.17 6.76 72.07 6.71 72.07 6.71C71.08 6.80 70.63 6.80 70.06 6.80C70.06 5.81 70.18 4.34 70.18 4.34C70.10 4.26 70.01 4.26 69.93 4.26C69.38 4.91 68.87 5.12 68.87 5.12C68.87 5.12 68.88 5.91 68.88 6.31C68.88 6.47 68.88 6.80 68.77 6.80L67.77 6.80C67.75 6.99 67.75 7.11 67.65 7.31C67.65 7.42 67.75 7.45 67.75 7.45C67.75 7.45 68.21 7.43 68.78 7.43C68.88 7.43 68.88 7.73 68.88 8.26L68.88 11.51C68.88 12.98 69.33 13.99 70.22 13.99C71.33 13.64 71.74 13.47 72.58 13.02C72.58 12.80 72.45 12.66 72.37 12.63C71.76 12.88 71.44 13.02 70.84 13.02C70.04 13.02 70.04 11.37 70.04 10.70L70.04 7.42ZM74.61 6.58C74.47 6.58 74.05 6.89 72.81 7.06C72.81 7.06 72.79 7.14 72.79 7.22C72.79 7.31 72.80 7.38 72.86 7.43C73.02 7.43 73.26 7.42 73.40 7.42C74.10 7.43 74.10 8.29 74.10 9.21C74.10 10.29 74.10 11.82 74.02 12.43C73.96 12.87 73.88 13.27 72.86 13.47C72.86 13.47 72.84 13.52 72.84 13.58C72.84 13.65 72.86 13.75 72.91 13.82C73.68 13.72 74.54 13.71 74.94 13.71C75.25 13.71 75.89 13.75 76.51 13.75C76.55 13.66 76.55 13.59 76.55 13.54C76.55 13.41 76.51 13.31 76.51 13.31C76.06 13.31 75.70 13.31 75.38 13.27C75.21 13.26 75.19 12.29 75.19 12.10C75.19 11.79 75.19 9.77 75.28 8.71C75.73 8.22 76.43 7.55 76.68 7.55C77.04 7.55 77.27 7.84 77.39 8.29C78.23 8.29 78.39 8.01 78.39 7.73C78.39 7.08 77.85 6.58 77.10 6.58C76.40 7.04 76.01 7.39 75.19 8.23C75.14 7.50 74.80 6.58 74.61 6.58ZM81.19 11.06C81.19 10.46 81.20 7.39 81.35 6.52C81.35 6.52 81.31 6.36 81.14 6.36C80.75 6.55 80.53 6.66 80.07 6.83C79.56 7.00 79.34 7.04 78.89 7.14C78.89 7.14 78.85 7.21 78.85 7.32C78.85 7.38 78.85 7.45 78.89 7.50C78.89 7.50 79.23 7.53 79.41 7.55C80.11 7.62 80.12 8.23 80.12 9.34L80.12 10.68C80.12 11.24 80.12 12.18 80.05 12.43C79.94 12.85 79.83 13.27 78.99 13.47C78.99 13.47 78.96 13.52 78.96 13.58C78.96 13.65 78.99 13.75 79.04 13.82C79.80 13.72 80.47 13.71 80.89 13.71C81.12 13.71 81.69 13.75 82.15 13.75C82.19 13.66 82.19 13.59 82.19 13.54C82.19 13.41 82.15 13.31 82.15 13.31C81.86 13.31 81.58 13.31 81.37 13.27C81.24 13.26 81.19 11.70 81.19 11.06ZM80.84 4.76C81.14 4.65 81.58 4.30 81.76 4.06C81.68 3.75 81.40 3.36 81.07 3.12C80.79 3.23 80.35 3.57 80.12 3.84C80.25 4.17 80.50 4.52 80.84 4.76ZM86.86 6.58C86.52 6.58 83.38 7.06 83.38 10.35C83.38 12.29 84.41 13.99 86.62 13.99C87.15 13.99 87.70 13.76 87.75 13.72L89.11 12.80C89.11 12.59 88.98 12.52 88.98 12.52C88.13 12.88 87.65 13.05 86.93 13.05C85.23 13.05 84.55 11.40 84.55 9.79C84.55 8.57 85.34 7.14 86.31 7.14C87.19 7.14 87.74 7.62 88.26 8.23C88.94 8.06 89.10 7.39 89.10 7.39C88.58 6.92 87.86 6.58 86.86 6.58Z"
       id="path8" />
  </g>
  <defs
     data-v-fde0c5aa=""
     id="defs16">
    <linearGradient
       data-v-fde0c5aa=""
       gradientTransform="rotate(25)"
       id="3789cc4a-09ee-4c1e-917b-389e24dcf466"
       x1="0%"
       y1="0%"
       x2="100%"
       y2="0%">
      <stop
         data-v-fde0c5aa=""
         offset="0%"
         stop-color="#0D2175"
         stop-opacity="1"
         id="stop11" />
      <stop
         data-v-fde0c5aa=""
         offset="100%"
         stop-color="#1F1EFB"
         stop-opacity="1"
         id="stop13" />
    </linearGradient>
  </defs>
  <g
     data-v-fde0c5aa=""
     id="bfe2fd64-e7a2-4d77-a96c-d5c9c1ca8256"
     stroke="none"
     fill="url(#3789cc4a-09ee-4c1e-917b-389e24dcf466)"
     transform="matrix(0.45842642491720254,0,0,0.45842642491720254,35.87416217574518,127.07867875413989)">
    <path
       d="M81 10c-5.5 0-10 4.5-10 10s4.5 10 10 10 10-4.5 10-10-4.5-10-10-10zm0 16c-3.3 0-6-2.7-6-6s2.7-6 6-6 6 2.7 6 6-2.7 6-6 6z"
       id="path18" />
    <path
       d="M81 40c-2.1 0-4.1.7-5.7 1.8L58.6 25.1c.9-1.5 1.4-3.2 1.4-5.1 0-5.5-4.5-10-10-10s-10 4.5-10 10 4.5 10 10 10c2.2 0 4.2-.7 5.9-1.9l16.6 16.6C71.5 46.2 71 48 71 50c0 5.5 4.5 10 10 10s10-4.5 10-10-4.5-10-10-10zM44 20c0-3.3 2.7-6 6-6s6 2.7 6 6-2.7 6-6 6-6-2.7-6-6zm37 36c-3.3 0-6-2.7-6-6s2.7-6 6-6 6 2.7 6 6-2.7 6-6 6z"
       id="path20" />
    <path
       d="M50 60c5.5 0 10-4.5 10-10s-4.5-10-10-10-10 4.5-10 10 4.5 10 10 10zm0-16c3.3 0 6 2.7 6 6s-2.7 6-6 6-6-2.7-6-6 2.7-6 6-6zM19 90c5.5 0 10-4.5 10-10s-4.5-10-10-10S9 74.5 9 80s4.5 10 10 10zm0-16c3.3 0 6 2.7 6 6s-2.7 6-6 6-6-2.7-6-6 2.7-6 6-6z"
       id="path22" />
    <path
       d="M81 70c-4.8 0-8.9 3.4-9.8 8H59.8c-.9-4.6-5-8-9.8-8-3.1 0-5.9 1.4-7.7 3.7L25.8 57.3c1.9-1.8 3.2-4.4 3.2-7.3 0-4.8-3.4-8.9-8-9.8V29.8c4.6-.9 8-5 8-9.8 0-5.5-4.5-10-10-10S9 14.5 9 20c0 4.8 3.4 8.9 8 9.8v10.4c-4.6.9-8 5-8 9.8 0 5.5 4.5 10 10 10 1.2 0 2.3-.2 3.3-.6l18 18c-.2.9-.3 1.7-.3 2.6 0 5.5 4.5 10 10 10 4.8 0 8.9-3.4 9.8-8h11.4c.9 4.6 5 8 9.8 8 5.5 0 10-4.5 10-10s-4.5-10-10-10zM13 20c0-3.3 2.7-6 6-6s6 2.7 6 6-2.7 6-6 6-6-2.7-6-6zm0 30c0-3.3 2.7-6 6-6s6 2.7 6 6-2.7 6-6 6-6-2.7-6-6zm37 36c-3.3 0-6-2.7-6-6s2.7-6 6-6 6 2.7 6 6-2.7 6-6 6zm31 0c-3.3 0-6-2.7-6-6s2.7-6 6-6 6 2.7 6 6-2.7 6-6 6z"
       id="path24" />
  </g>
  <!---->
</svg>
